<svg width="56" height="56" viewBox="0 0 56 56" fill="none" xmlns="http://www.w3.org/2000/svg">
<path d="M48.2605 15.0561L33.5286 0.324187C33.321 0.116594 33.0396 0 32.7459 0H11.9873C9.4663 0 7.41541 2.05089 7.41541 4.57188V51.4281C7.41541 53.9491 9.4663 56 11.9873 56H44.0127C46.5337 56 48.5846 53.9491 48.5846 51.4281V15.8387C48.5846 15.5453 48.468 15.2636 48.2605 15.0561ZM33.8528 3.7788L44.8059 14.7317H36.211C34.9106 14.7317 33.8529 13.6738 33.8529 12.3734V3.7788H33.8528ZM46.3711 51.4281C46.3711 52.7285 45.3132 53.7865 44.0127 53.7865H11.9873C10.6869 53.7865 9.62894 52.7285 9.62894 51.4281V4.57188C9.62894 3.27152 10.6869 2.21353 11.9873 2.21353H31.6391V12.3736C31.6391 14.8946 33.6899 16.9455 36.2109 16.9455H46.3711V51.4281Z" fill="white"/>
<path d="M36.8538 28.1106H19.1462C18.535 28.1106 18.0394 28.6062 18.0394 29.2174C18.0394 29.8286 18.535 30.3241 19.1462 30.3241H36.8538C37.4652 30.3241 37.9606 29.8286 37.9606 29.2174C37.9606 28.6062 37.4652 28.1106 36.8538 28.1106Z" fill="white"/>
<path d="M36.8538 33.054H19.1462C18.535 33.054 18.0394 33.5495 18.0394 34.1607C18.0394 34.7719 18.535 35.2675 19.1462 35.2675H36.8538C37.4652 35.2675 37.9606 34.7719 37.9606 34.1607C37.9606 33.5495 37.4652 33.054 36.8538 33.054Z" fill="white"/>
<path d="M36.8538 37.9973H19.1462C18.535 37.9973 18.0394 38.4929 18.0394 39.1041C18.0394 39.7153 18.535 40.2108 19.1462 40.2108H36.8538C37.4652 40.2108 37.9606 39.7153 37.9606 39.1041C37.9606 38.4929 37.4652 37.9973 36.8538 37.9973Z" fill="white"/>
<path d="M31.0988 42.9407H19.1462C18.535 42.9407 18.0394 43.4363 18.0394 44.0474C18.0394 44.6586 18.535 45.1542 19.1462 45.1542H31.0988C31.7102 45.1542 32.2056 44.6586 32.2056 44.0474C32.2056 43.4363 31.7102 42.9407 31.0988 42.9407Z" fill="white"/>
</svg>
