<svg width="56" height="56" viewBox="0 0 56 56" fill="none" xmlns="http://www.w3.org/2000/svg">
<g clip-path="url(#clip0_75_973)">
<path d="M55.125 15.75H48.181C43.9206 8.72462 36.2416 4.375 28 4.375C19.7584 4.375 12.0768 8.7255 7.81813 15.75H0.875C0.392 15.75 0 16.1411 0 16.625V39.375C0 39.8589 0.392 40.25 0.875 40.25H7.81813C12.0785 47.2754 19.7575 51.625 28 51.625C36.2425 51.625 43.9232 47.2745 48.1819 40.25H55.125C55.608 40.25 56 39.8589 56 39.375V16.625C56 16.1411 55.608 15.75 55.125 15.75ZM1.75 17.5H6.84075C5.22462 20.7445 4.375 24.3434 4.375 28C4.375 31.6566 5.2255 35.2572 6.84075 38.5H1.75V17.5ZM28 49.875C20.209 49.875 12.9517 45.6846 9.06063 38.9349C7.14 35.6309 6.125 31.8491 6.125 28C6.125 24.1509 7.14 20.3691 9.0615 17.0625C12.9517 10.3154 20.2081 6.125 28 6.125C35.7919 6.125 43.0483 10.3154 46.9385 17.0625V17.0651C48.86 20.3691 49.875 24.1509 49.875 28C49.875 31.8491 48.86 35.6309 46.9385 38.9375C43.0483 45.6846 35.7919 49.875 28 49.875ZM54.25 38.5H49.1592C50.7754 35.2555 51.625 31.6566 51.625 28C51.625 24.3434 50.7754 20.7436 49.1592 17.5H54.25V38.5Z" fill="white"/>
<path d="M41.0667 25C41.5819 25 42 24.6089 42 24.125V18.875C42 18.3911 41.5819 18 41.0667 18H14.9333C14.4181 18 14 18.3911 14 18.875V24.125C14 24.6089 14.4181 25 14.9333 25H41.0667ZM28.9333 19.75H33.6V23.25H28.9333V19.75ZM27.0667 23.25H22.4V19.75H27.0667V23.25ZM40.1333 23.25H35.4667V19.75H40.1333V23.25ZM15.8667 19.75H20.5333V23.25H15.8667V19.75Z" fill="white"/>
<path d="M27.2505 28.3669L22.9978 34.383C22.3452 35.2985 22 36.368 22 37.4788C22 38.9549 22.6554 40.3558 23.8489 41.4263C24.9935 42.4413 26.4677 43 28 43C31.252 43 34 40.4723 34 37.4788C34 36.368 33.6548 35.2985 33.0049 34.3858L28.7495 28.3669C28.4025 27.8777 27.5975 27.8777 27.2505 28.3669ZM32.1538 37.4788C32.1538 39.4187 30.2126 41.122 28 41.122C26.9292 41.122 25.8585 40.7164 25.0655 40.014C24.2791 39.3089 23.8462 38.4084 23.8462 37.4788C23.8462 36.767 24.0695 36.0778 24.4942 35.4825L28 30.5237L31.5077 35.4853C31.9305 36.0778 32.1538 36.767 32.1538 37.4788Z" fill="white"/>
<path d="M38.5 35C40.43 35 42 33.43 42 31.5C42 29.57 40.43 28 38.5 28C36.57 28 35 29.57 35 31.5C35 33.43 36.57 35 38.5 35ZM38.5 30C39.327 30 40 30.673 40 31.5C40 32.327 39.327 33 38.5 33C37.673 33 37 32.327 37 31.5C37 30.673 37.673 30 38.5 30Z" fill="white"/>
<path d="M14 31.5C14 33.43 15.57 35 17.5 35C19.43 35 21 33.43 21 31.5C21 29.57 19.43 28 17.5 28C15.57 28 14 29.57 14 31.5ZM19 31.5C19 32.327 18.327 33 17.5 33C16.673 33 16 32.327 16 31.5C16 30.673 16.673 30 17.5 30C18.327 30 19 30.673 19 31.5Z" fill="white"/>
<path d="M31 15C31.552 15 32 14.553 32 14C32 13.447 31.552 13 31 13H25C24.448 13 24 13.447 24 14C24 14.553 24.448 15 25 15H31Z" fill="white"/>
<path d="M28 39C28.5523 39 29 38.3284 29 37.5C29 36.6716 28.5523 36 28 36C27.4477 36 27 36.6716 27 37.5C27 38.3284 27.4477 39 28 39Z" fill="white"/>
</g>
<defs>
<clipPath id="clip0_75_973">
<rect width="56" height="56" fill="white"/>
</clipPath>
</defs>
</svg>
