<svg width="35" height="34" viewBox="0 0 35 34" fill="none" xmlns="http://www.w3.org/2000/svg">
<path d="M24.7624 30.1536C14.0187 30.1242 5.29046 21.4719 5.16697 10.7289C5.16507 10.6968 5.16479 10.603 5.16479 10.603C5.18819 7.69696 7.54697 5.3515 10.453 5.34443C10.453 5.34443 11.4657 5.31315 12.3717 5.6741C12.5455 5.73802 12.6747 5.88598 12.7147 6.06686L14.4397 13.8461C14.4797 14.0261 14.4259 14.2144 14.2964 14.3457C13.732 14.9202 13.0435 15.3576 12.2836 15.6241C13.6792 19.0165 16.3853 21.702 19.7883 23.0718C20.0611 22.3118 20.5056 21.6253 21.0874 21.0655C21.218 20.9396 21.4027 20.8871 21.58 20.9254L29.2885 22.5879C29.4642 22.6257 29.6097 22.7478 29.6774 22.9143C29.777 23.1583 29.8559 23.4101 29.9135 23.6672C30.5767 26.5101 28.8095 29.3522 25.9665 30.0154C25.5719 30.1076 25.1677 30.1538 24.7624 30.1536ZM10.4411 6.43243C8.13721 6.44467 6.27102 8.3057 6.25225 10.6093V10.7061C6.36132 20.8585 14.6081 29.0389 24.761 29.0661C27.079 29.068 28.9594 27.1904 28.9613 24.8724C28.9615 24.5484 28.9243 24.2256 28.8503 23.9103C28.8258 23.8015 28.7967 23.6944 28.7632 23.5888L21.6453 22.0523C21.1685 22.5775 20.8342 23.2165 20.6745 23.9076C20.6071 24.2003 20.3149 24.3831 20.0223 24.3156C20.0029 24.3113 19.9839 24.3056 19.9651 24.299C15.8185 22.8316 12.5482 19.5828 11.0536 15.446C10.9527 15.1631 11.1009 14.8043 11.448 14.732C12.1402 14.5783 12.7819 14.2508 13.312 13.78L11.7195 6.60325C11.6126 6.5717 11.0503 6.40877 10.4411 6.43243Z" fill="#BE3203"/>
<path d="M24.1604 16.7586H23.0724C23.0697 14.2891 21.0686 12.288 18.5991 12.2853V11.1973C21.6692 11.2008 24.1569 13.6885 24.1604 16.7586Z" fill="#BE3203"/>
<path d="M30.763 15.6097H29.675C29.6696 10.1289 25.2278 5.68719 19.747 5.68175V4.59375C25.8284 4.60001 30.7568 9.52837 30.763 15.6097Z" fill="#BE3203"/>
</svg>
