<svg width="34" height="34" viewBox="0 0 34 34" fill="none" xmlns="http://www.w3.org/2000/svg">
<g clip-path="url(#clip0_280_139)">
<path d="M17 34C13.6377 34 10.3509 33.003 7.55531 31.135C4.75968 29.267 2.58075 26.612 1.29406 23.5056C0.00736578 20.3993 -0.329291 16.9811 0.326658 13.6835C0.982607 10.3858 2.6017 7.35669 4.97919 4.97919C7.35669 2.6017 10.3858 0.982607 13.6835 0.326658C16.9811 -0.329291 20.3993 0.00736578 23.5056 1.29406C26.612 2.58075 29.267 4.75968 31.135 7.55531C33.003 10.3509 34 13.6377 34 17C33.9949 21.5071 32.2023 25.8282 29.0152 29.0152C25.8282 32.2023 21.5071 33.9949 17 34ZM17 1.32813C13.9004 1.32813 10.8704 2.24727 8.29318 3.96932C5.71595 5.69137 3.70725 8.13898 2.52108 11.0026C1.33492 13.8663 1.02456 17.0174 1.62926 20.0574C2.23397 23.0975 3.72657 25.8899 5.91832 28.0817C8.11007 30.2734 10.9025 31.7661 13.9426 32.3708C16.9826 32.9755 20.1337 32.6651 22.9974 31.4789C25.861 30.2928 28.3086 28.2841 30.0307 25.7068C31.7527 23.1296 32.6719 20.0996 32.6719 17C32.6672 12.845 31.0145 8.86155 28.0765 5.92352C25.1385 2.98549 21.155 1.33284 17 1.32813Z" fill="#BE3203"/>
<path d="M17 5.2863C16.8239 5.2863 16.655 5.21633 16.5304 5.0918C16.4059 4.96726 16.3359 4.79835 16.3359 4.62223V2.99023C16.3359 2.81411 16.4059 2.64521 16.5304 2.52067C16.655 2.39614 16.8239 2.32617 17 2.32617C17.1761 2.32617 17.345 2.39614 17.4696 2.52067C17.5941 2.64521 17.6641 2.81411 17.6641 2.99023V4.62223C17.6641 4.79835 17.5941 4.96726 17.4696 5.0918C17.345 5.21633 17.1761 5.2863 17 5.2863Z" fill="#BE3203"/>
<path d="M4.62309 17.6641H2.99109C2.81497 17.6641 2.64606 17.5941 2.52153 17.4696C2.39699 17.345 2.32703 17.1761 2.32703 17C2.32703 16.8239 2.39699 16.655 2.52153 16.5304C2.64606 16.4059 2.81497 16.3359 2.99109 16.3359H4.62309C4.79921 16.3359 4.96812 16.4059 5.09265 16.5304C5.21719 16.655 5.28715 16.8239 5.28715 17C5.28715 17.1761 5.21719 17.345 5.09265 17.4696C4.96812 17.5941 4.79921 17.6641 4.62309 17.6641Z" fill="#BE3203"/>
<path d="M17 31.673C16.8239 31.673 16.655 31.6031 16.5304 31.4785C16.4059 31.354 16.3359 31.1851 16.3359 31.009V29.377C16.3359 29.2008 16.4059 29.0319 16.5304 28.9074C16.655 28.7829 16.8239 28.7129 17 28.7129C17.1761 28.7129 17.345 28.7829 17.4696 28.9074C17.5941 29.0319 17.6641 29.2008 17.6641 29.377V31.009C17.6641 31.1851 17.5941 31.354 17.4696 31.4785C17.345 31.6031 17.1761 31.673 17 31.673Z" fill="#BE3203"/>
<path d="M31.009 17.6641H29.377C29.2008 17.6641 29.0319 17.5941 28.9074 17.4696C28.7829 17.345 28.7129 17.1761 28.7129 17C28.7129 16.8239 28.7829 16.655 28.9074 16.5304C29.0319 16.4059 29.2008 16.3359 29.377 16.3359H31.009C31.1851 16.3359 31.354 16.4059 31.4785 16.5304C31.6031 16.655 31.673 16.8239 31.673 17C31.673 17.1761 31.6031 17.345 31.4785 17.4696C31.354 17.5941 31.1851 17.6641 31.009 17.6641Z" fill="#BE3203"/>
<path d="M20.9168 19.9269C20.8002 19.9269 20.6856 19.8962 20.5847 19.8378L16.6668 17.576C16.566 17.5175 16.4825 17.4336 16.4244 17.3327C16.3663 17.2318 16.3358 17.1173 16.3359 17.0009V7.65234C16.3359 7.56514 16.3531 7.47879 16.3865 7.39822C16.4199 7.31765 16.4688 7.24444 16.5304 7.18278C16.5921 7.12112 16.6653 7.0722 16.7459 7.03883C16.8264 7.00546 16.9128 6.98828 17 6.98828C17.0872 6.98828 17.1736 7.00546 17.2541 7.03883C17.3347 7.0722 17.4079 7.12112 17.4696 7.18278C17.5312 7.24444 17.5801 7.31765 17.6135 7.39822C17.6469 7.47879 17.6641 7.56514 17.6641 7.65234V16.6172L21.25 18.6876C21.3767 18.7607 21.4757 18.8735 21.5316 19.0086C21.5876 19.1437 21.5975 19.2934 21.5596 19.4347C21.5218 19.5759 21.4384 19.7007 21.3224 19.7897C21.2063 19.8787 21.0642 19.9269 20.918 19.9269H20.9168Z" fill="#BE3203"/>
</g>
<defs>
<clipPath id="clip0_280_139">
<rect width="34" height="34" fill="white"/>
</clipPath>
</defs>
</svg>
