<svg width="34" height="34" viewBox="0 0 34 34" fill="none" xmlns="http://www.w3.org/2000/svg">
<g clip-path="url(#clip0_60_1309)">
<path d="M26.5057 6.37529C26.4149 6.37531 26.3256 6.35208 26.2464 6.30781C26.1672 6.26355 26.1006 6.19972 26.053 6.12241C25.7208 5.58421 25.3416 5.07648 24.9199 4.60516C24.8258 4.50005 24.7774 4.36189 24.7852 4.22106C24.793 4.08024 24.8565 3.94829 24.9616 3.85424C25.0667 3.76019 25.2049 3.71175 25.3457 3.71957C25.4865 3.72739 25.6185 3.79083 25.7125 3.89594C26.1763 4.4142 26.5932 4.97261 26.9583 5.5646C27.0081 5.64513 27.0355 5.73751 27.0376 5.83217C27.0397 5.92683 27.0165 6.02034 26.9703 6.10301C26.9242 6.18569 26.8567 6.25452 26.775 6.30239C26.6934 6.35026 26.6004 6.37543 26.5057 6.37529Z" fill="#BE3203"/>
<path d="M15.895 32.4071C15.8084 32.4072 15.7231 32.3861 15.6465 32.3456C15.5699 32.3051 15.5044 32.2466 15.4557 32.175C12.4063 27.7019 5.3125 16.7496 5.3125 11.6884C5.31233 9.45706 5.95091 7.2723 7.15276 5.3923C8.35462 3.5123 10.0695 2.01564 12.0948 1.07916C14.1201 0.142684 16.3712 -0.194459 18.582 0.10757C20.7928 0.4096 22.8709 1.33818 24.5708 2.78358C24.6781 2.87516 24.7447 3.00561 24.7558 3.14624C24.7669 3.28686 24.7217 3.42614 24.6301 3.53344C24.5385 3.64073 24.408 3.70725 24.2674 3.71835C24.1268 3.72946 23.9875 3.68425 23.8802 3.59267C22.3348 2.27938 20.4457 1.43584 18.4363 1.16169C16.4268 0.887535 14.3808 1.19423 12.5401 2.04553C10.6993 2.89684 9.14063 4.2572 8.04819 5.96591C6.95574 7.67462 6.37515 9.6603 6.375 11.6884C6.375 16.5886 13.9974 28.1502 16.3338 31.5773C16.388 31.6572 16.4195 31.7502 16.4248 31.8466C16.4302 31.9429 16.4091 32.0389 16.364 32.1242C16.3189 32.2095 16.2514 32.281 16.1688 32.3308C16.0862 32.3806 15.9915 32.407 15.895 32.4071Z" fill="#BE3203"/>
<path d="M15.4902 32.2247L15.4535 32.171L16.3359 31.5781L15.4902 32.2247Z" fill="#BE3203"/>
<path d="M17 33.9996C16.9155 33.9995 16.8322 33.9793 16.7571 33.9406C16.682 33.9019 16.6172 33.8458 16.5681 33.777C16.5681 33.777 16.1548 33.199 15.4875 32.221L16.3657 31.6223C16.6159 31.9899 16.8305 32.2996 16.9995 32.5435C19.0426 29.6009 27.625 16.9295 27.625 11.6871C27.6269 9.72216 27.0826 7.79535 26.053 6.12173L26.9561 5.56445C28.0894 7.4055 28.6888 9.52523 28.6875 11.6871C28.6875 17.9468 17.892 33.1337 17.4324 33.777C17.3833 33.8459 17.3184 33.902 17.2432 33.9407C17.168 33.9794 17.0846 33.9996 17 33.9996Z" fill="#BE3203"/>
<path d="M17 17.5313C16.0747 17.5311 15.1627 17.3112 14.339 16.8898C13.5153 16.4683 12.8034 15.8572 12.262 15.1069C11.7206 14.3566 11.3651 13.4884 11.2248 12.5738C11.0844 11.6592 11.1633 10.7244 11.4548 9.84626C11.7463 8.96811 12.2422 8.17174 12.9017 7.52269C13.5611 6.87363 14.3653 6.39044 15.2479 6.11288C16.1306 5.83531 17.0666 5.77132 17.9788 5.92615C18.891 6.08098 19.7534 6.45021 20.4951 7.00347C20.6078 7.08801 20.6823 7.21386 20.7023 7.35334C20.7222 7.49282 20.6859 7.6345 20.6013 7.74722C20.5168 7.85994 20.391 7.93445 20.2515 7.95438C20.112 7.97431 19.9703 7.93801 19.8576 7.85347C18.8887 7.13073 17.682 6.8018 16.4803 6.93288C15.2787 7.06396 14.1713 7.64532 13.381 8.55995C12.5907 9.47459 12.1762 10.6546 12.2208 11.8626C12.2655 13.0705 12.766 14.2167 13.6217 15.0705C14.4774 15.9243 15.6247 16.4223 16.8327 16.4643C18.0407 16.5063 19.2199 16.0892 20.1328 15.2969C21.0457 14.5046 21.6246 13.3959 21.753 12.194C21.8814 10.992 21.5499 9.78606 20.825 8.81875C20.7831 8.76294 20.7527 8.69943 20.7354 8.63185C20.7181 8.56426 20.7142 8.49393 20.7241 8.42487C20.734 8.35581 20.7573 8.28936 20.7929 8.22933C20.8284 8.1693 20.8754 8.11686 20.9312 8.075C20.9871 8.03314 21.0506 8.00269 21.1182 7.98537C21.1857 7.96806 21.2561 7.96422 21.3251 7.97409C21.3942 7.98396 21.4606 8.00733 21.5207 8.04287C21.5807 8.07842 21.6331 8.12544 21.675 8.18125C22.3262 9.04945 22.7227 10.0818 22.8201 11.1627C22.9176 12.2436 22.7121 13.3302 22.2268 14.3009C21.7415 15.2716 20.9954 16.0879 20.0722 16.6585C19.1491 17.229 18.0853 17.5313 17 17.5313Z" fill="#BE3203"/>
</g>
<defs>
<clipPath id="clip0_60_1309">
<rect width="34" height="34" fill="white"/>
</clipPath>
</defs>
</svg>
