<svg width="56" height="56" viewBox="0 0 56 56" fill="none" xmlns="http://www.w3.org/2000/svg">
<path d="M22.75 7.875C22.75 8.35825 22.3583 8.75 21.875 8.75C21.3917 8.75 21 8.35825 21 7.875C21 7.39175 21.3917 7 21.875 7C22.3583 7 22.75 7.39175 22.75 7.875Z" fill="white"/>
<path fill-rule="evenodd" clip-rule="evenodd" d="M21.875 3.5C19.7584 3.5 17.9929 5.00304 17.5875 7H14.875C13.7321 7 12.7597 7.73046 12.3994 8.75H6.125C4.67526 8.75 3.5 9.92521 3.5 11.375V49.875C3.5 51.3248 4.67526 52.5 6.125 52.5H37.625C39.0748 52.5 40.25 51.3248 40.25 49.875V11.375C40.25 9.92521 39.0748 8.75 37.625 8.75H31.3506C30.9903 7.73046 30.0179 7 28.875 7H26.1625C25.7571 5.00304 23.9916 3.5 21.875 3.5ZM31.5 10.5V12.25H34.125C35.5748 12.25 36.75 13.4252 36.75 14.875V41.125C36.75 41.3749 36.6431 41.6129 36.4563 41.779L28.5813 48.779C28.4211 48.9213 28.2143 49 28 49H9.625C8.17526 49 7 47.8248 7 46.375V14.875C7 13.4252 8.17526 12.25 9.625 12.25H12.25V10.5H6.125C5.64176 10.5 5.25 10.8917 5.25 11.375V49.875C5.25 50.3583 5.64176 50.75 6.125 50.75H37.625C38.1083 50.75 38.5 50.3583 38.5 49.875V11.375C38.5 10.8917 38.1083 10.5 37.625 10.5H31.5ZM35 14.875C35 14.3917 34.6083 14 34.125 14H9.625C9.14174 14 8.75 14.3917 8.75 14.875V46.375C8.75 46.8583 9.14174 47.25 9.625 47.25H27.125V42.875C27.125 41.4253 28.3002 40.25 29.75 40.25H35V14.875ZM19.25 7.875C19.25 6.42526 20.4252 5.25 21.875 5.25C23.3248 5.25 24.5 6.42526 24.5 7.875C24.5 8.35824 24.8917 8.75 25.375 8.75H28.875C29.3583 8.75 29.75 9.14174 29.75 9.625V12.25H14V9.625C14 9.14174 14.3917 8.75 14.875 8.75H18.375C18.8583 8.75 19.25 8.35824 19.25 7.875ZM29.75 42H33.5736L28.875 46.1766V42.875C28.875 42.3917 29.2667 42 29.75 42Z" fill="white"/>
<path fill-rule="evenodd" clip-rule="evenodd" d="M43.75 16.625C43.75 15.1752 44.9252 14 46.375 14H49.875C51.3248 14 52.5 15.1752 52.5 16.625V45.5C52.5 45.6523 52.4603 45.8019 52.3847 45.9341L48.8847 52.0591C48.7289 52.3317 48.439 52.5 48.125 52.5C47.811 52.5 47.5211 52.3317 47.3653 52.0591L43.8653 45.9341C43.7897 45.8019 43.75 45.6523 43.75 45.5V16.625ZM46.375 15.75C45.8917 15.75 45.5 16.1417 45.5 16.625V18.375H50.75V16.625C50.75 16.1417 50.3583 15.75 49.875 15.75H46.375ZM50.75 20.125H45.5V21H50.75V20.125ZM45.5 44.625V22.75H50.75V44.625H45.5ZM48.125 49.8614L46.1328 46.375H50.1172L48.125 49.8614Z" fill="white"/>
</svg>
