<svg width="34" height="34" viewBox="0 0 34 34" fill="none" xmlns="http://www.w3.org/2000/svg">
<path d="M24.2624 30.1536C13.5187 30.1242 4.79046 21.4719 4.66697 10.7289C4.66507 10.6968 4.66479 10.603 4.66479 10.603C4.68819 7.69696 7.04697 5.3515 9.95302 5.34443C9.95302 5.34443 10.9657 5.31315 11.8717 5.6741C12.0455 5.73802 12.1747 5.88598 12.2147 6.06686L13.9397 13.8461C13.9797 14.0261 13.9259 14.2144 13.7964 14.3457C13.232 14.9202 12.5435 15.3576 11.7836 15.6241C13.1792 19.0165 15.8853 21.702 19.2883 23.0718C19.5611 22.3118 20.0056 21.6253 20.5874 21.0655C20.718 20.9396 20.9027 20.8871 21.08 20.9254L28.7885 22.5879C28.9642 22.6257 29.1097 22.7478 29.1774 22.9143C29.277 23.1583 29.3559 23.4101 29.4135 23.6672C30.0767 26.5101 28.3095 29.3522 25.4665 30.0154C25.0719 30.1076 24.6677 30.1538 24.2624 30.1536ZM9.94105 6.43243C7.63721 6.44467 5.77102 8.3057 5.75225 10.6093V10.7061C5.86132 20.8585 14.1081 29.0389 24.261 29.0661C26.579 29.068 28.4594 27.1904 28.4613 24.8724C28.4615 24.5484 28.4243 24.2256 28.3503 23.9103C28.3258 23.8015 28.2967 23.6944 28.2632 23.5888L21.1453 22.0523C20.6685 22.5775 20.3342 23.2165 20.1745 23.9076C20.1071 24.2003 19.8149 24.3831 19.5223 24.3156C19.5029 24.3113 19.4839 24.3056 19.4651 24.299C15.3185 22.8316 12.0482 19.5828 10.5536 15.446C10.4527 15.1631 10.6009 14.8043 10.948 14.732C11.6402 14.5783 12.2819 14.2508 12.812 13.78L11.2195 6.60325C11.1126 6.5717 10.5503 6.40877 9.94105 6.43243Z" fill="white"/>
<path d="M23.6605 16.7586H22.5725C22.5697 14.2891 20.5686 12.288 18.0992 12.2853V11.1973C21.1692 11.2008 23.6569 13.6885 23.6605 16.7586Z" fill="white"/>
<path d="M30.263 15.6097H29.175C29.1695 10.1289 24.7278 5.68719 19.247 5.68175V4.59375C25.3284 4.60001 30.2567 9.52837 30.263 15.6097Z" fill="white"/>
</svg>
