<svg width="34" height="34" viewBox="0 0 34 34" fill="none" xmlns="http://www.w3.org/2000/svg">
<path d="M21.25 19.125C21.1091 19.125 20.974 19.069 20.8743 18.9694C20.7747 18.8698 20.7188 18.7346 20.7188 18.5938V6.375H13.2812V18.5938C13.2812 18.7346 13.2253 18.8698 13.1257 18.9694C13.026 19.069 12.8909 19.125 12.75 19.125C12.6091 19.125 12.474 19.069 12.3743 18.9694C12.2747 18.8698 12.2188 18.7346 12.2188 18.5938V5.84375C12.2188 5.70285 12.2747 5.56773 12.3743 5.4681C12.474 5.36847 12.6091 5.3125 12.75 5.3125H21.25C21.3909 5.3125 21.526 5.36847 21.6257 5.4681C21.7253 5.56773 21.7812 5.70285 21.7812 5.84375V18.5938C21.7812 18.7346 21.7253 18.8698 21.6257 18.9694C21.526 19.069 21.3909 19.125 21.25 19.125Z" fill="white"/>
<path d="M10.625 13.2812H8.5C8.3591 13.2812 8.22398 13.2253 8.12435 13.1257C8.02472 13.026 7.96875 12.8909 7.96875 12.75C7.96875 12.6091 8.02472 12.474 8.12435 12.3743C8.22398 12.2747 8.3591 12.2188 8.5 12.2188H10.625C10.7659 12.2188 10.901 12.2747 11.0007 12.3743C11.1003 12.474 11.1562 12.6091 11.1562 12.75C11.1562 12.8909 11.1003 13.026 11.0007 13.1257C10.901 13.2253 10.7659 13.2812 10.625 13.2812Z" fill="white"/>
<path d="M19.125 6.375H14.875C14.7341 6.375 14.599 6.31903 14.4993 6.2194C14.3997 6.11977 14.3438 5.98465 14.3438 5.84375V3.71875C14.3438 3.57785 14.3997 3.44273 14.4993 3.3431C14.599 3.24347 14.7341 3.1875 14.875 3.1875H19.125C19.2659 3.1875 19.401 3.24347 19.5007 3.3431C19.6003 3.44273 19.6562 3.57785 19.6562 3.71875V5.84375C19.6562 5.98465 19.6003 6.11977 19.5007 6.2194C19.401 6.31903 19.2659 6.375 19.125 6.375ZM15.4062 5.3125H18.5938V4.25H15.4062V5.3125Z" fill="white"/>
<path d="M17 4.25C16.8591 4.25 16.724 4.19403 16.6243 4.0944C16.5247 3.99477 16.4688 3.85965 16.4688 3.71875V1.59375C16.4688 1.45285 16.5247 1.31773 16.6243 1.2181C16.724 1.11847 16.8591 1.0625 17 1.0625C17.1409 1.0625 17.276 1.11847 17.3757 1.2181C17.4753 1.31773 17.5312 1.45285 17.5312 1.59375V3.71875C17.5312 3.85965 17.4753 3.99477 17.3757 4.0944C17.276 4.19403 17.1409 4.25 17 4.25Z" fill="white"/>
<path d="M7.4375 9.56291C7.2966 9.56291 7.16148 9.50694 7.06185 9.40731C6.96222 9.30768 6.90625 9.17255 6.90625 9.03166V4.78166C6.90617 4.67547 6.93791 4.5717 6.99738 4.48373C7.05685 4.39576 7.14131 4.32763 7.23988 4.28813L12.5524 2.16313C12.633 2.13081 12.7204 2.11876 12.8067 2.12804C12.8931 2.13732 12.9759 2.16764 13.0479 2.21636C13.1198 2.26507 13.1787 2.33068 13.2194 2.40744C13.2601 2.48421 13.2813 2.56978 13.2812 2.65666V4.25041C13.2812 4.3913 13.2253 4.52643 13.1257 4.62606C13.026 4.72569 12.8909 4.78166 12.75 4.78166C12.6091 4.78166 12.474 4.72569 12.3743 4.62606C12.2747 4.52643 12.2188 4.3913 12.2188 4.25041V3.44078L7.96875 5.14078V9.03166C7.96875 9.17255 7.91278 9.30768 7.81315 9.40731C7.71352 9.50694 7.5784 9.56291 7.4375 9.56291Z" fill="white"/>
<path d="M23.9062 6.90625C23.7654 6.90625 23.6302 6.85028 23.5306 6.75065C23.431 6.65102 23.375 6.5159 23.375 6.375V2.125H19.6562C19.6562 2.2659 19.6003 2.40102 19.5007 2.50065C19.401 2.60028 19.2659 2.65625 19.125 2.65625C18.9841 2.65625 18.849 2.60028 18.7493 2.50065C18.6497 2.40102 18.5938 2.2659 18.5938 2.125V1.59375C18.5938 1.45285 18.6497 1.31773 18.7493 1.2181C18.849 1.11847 18.9841 1.0625 19.125 1.0625H23.9062C24.0471 1.0625 24.1823 1.11847 24.2819 1.2181C24.3815 1.31773 24.4375 1.45285 24.4375 1.59375V6.375C24.4375 6.5159 24.3815 6.65102 24.2819 6.75065C24.1823 6.85028 24.0471 6.90625 23.9062 6.90625Z" fill="white"/>
<path d="M23.375 11.1562H22.8438C22.7029 11.1562 22.5677 11.1003 22.4681 11.0007C22.3685 10.901 22.3125 10.7659 22.3125 10.625C22.3125 10.4841 22.3685 10.349 22.4681 10.2493C22.5677 10.1497 22.7029 10.0938 22.8438 10.0938H23.375C23.5159 10.0938 23.651 10.1497 23.7507 10.2493C23.8503 10.349 23.9062 10.4841 23.9062 10.625C23.9062 10.7659 23.8503 10.901 23.7507 11.0007C23.651 11.1003 23.5159 11.1562 23.375 11.1562Z" fill="white"/>
<path d="M25.5 11.1562H24.9688C24.8279 11.1562 24.6927 11.1003 24.5931 11.0007C24.4935 10.901 24.4375 10.7659 24.4375 10.625C24.4375 10.4841 24.4935 10.349 24.5931 10.2493C24.6927 10.1497 24.8279 10.0938 24.9688 10.0938H25.5C25.6409 10.0938 25.776 10.1497 25.8757 10.2493C25.9753 10.349 26.0312 10.4841 26.0312 10.625C26.0312 10.7659 25.9753 10.901 25.8757 11.0007C25.776 11.1003 25.6409 11.1562 25.5 11.1562Z" fill="white"/>
<path d="M23.375 13.8125H22.8438C22.7029 13.8125 22.5677 13.7565 22.4681 13.6569C22.3685 13.5573 22.3125 13.4221 22.3125 13.2812C22.3125 13.1404 22.3685 13.0052 22.4681 12.9056C22.5677 12.806 22.7029 12.75 22.8438 12.75H23.375C23.5159 12.75 23.651 12.806 23.7507 12.9056C23.8503 13.0052 23.9062 13.1404 23.9062 13.2812C23.9062 13.4221 23.8503 13.5573 23.7507 13.6569C23.651 13.7565 23.5159 13.8125 23.375 13.8125Z" fill="white"/>
<path d="M25.5 13.8125H24.9688C24.8279 13.8125 24.6927 13.7565 24.5931 13.6569C24.4935 13.5573 24.4375 13.4221 24.4375 13.2812C24.4375 13.1404 24.4935 13.0052 24.5931 12.9056C24.6927 12.806 24.8279 12.75 24.9688 12.75H25.5C25.6409 12.75 25.776 12.806 25.8757 12.9056C25.9753 13.0052 26.0312 13.1404 26.0312 13.2812C26.0312 13.4221 25.9753 13.5573 25.8757 13.6569C25.776 13.7565 25.6409 13.8125 25.5 13.8125Z" fill="white"/>
<path d="M23.375 16.4688H22.8438C22.7029 16.4688 22.5677 16.4128 22.4681 16.3132C22.3685 16.2135 22.3125 16.0784 22.3125 15.9375C22.3125 15.7966 22.3685 15.6615 22.4681 15.5618C22.5677 15.4622 22.7029 15.4062 22.8438 15.4062H23.375C23.5159 15.4062 23.651 15.4622 23.7507 15.5618C23.8503 15.6615 23.9062 15.7966 23.9062 15.9375C23.9062 16.0784 23.8503 16.2135 23.7507 16.3132C23.651 16.4128 23.5159 16.4688 23.375 16.4688Z" fill="white"/>
<path d="M25.5 16.4688H24.9688C24.8279 16.4688 24.6927 16.4128 24.5931 16.3132C24.4935 16.2135 24.4375 16.0784 24.4375 15.9375C24.4375 15.7966 24.4935 15.6615 24.5931 15.5618C24.6927 15.4622 24.8279 15.4062 24.9688 15.4062H25.5C25.6409 15.4062 25.776 15.4622 25.8757 15.5618C25.9753 15.6615 26.0312 15.7966 26.0312 15.9375C26.0312 16.0784 25.9753 16.2135 25.8757 16.3132C25.776 16.4128 25.6409 16.4688 25.5 16.4688Z" fill="white"/>
<path d="M6.90625 19.125C6.76535 19.125 6.63023 19.069 6.5306 18.9694C6.43097 18.8698 6.375 18.7346 6.375 18.5938V10.625C6.375 10.4841 6.43097 10.349 6.5306 10.2493C6.63023 10.1497 6.76535 10.0938 6.90625 10.0938H11.1562C11.2971 10.0938 11.4323 10.1497 11.5319 10.2493C11.6315 10.349 11.6875 10.4841 11.6875 10.625C11.6875 10.7659 11.6315 10.901 11.5319 11.0007C11.4323 11.1003 11.2971 11.1562 11.1562 11.1562H7.4375V18.5938C7.4375 18.7346 7.38153 18.8698 7.2819 18.9694C7.18227 19.069 7.04715 19.125 6.90625 19.125Z" fill="white"/>
<path d="M27.0938 19.125C26.9529 19.125 26.8177 19.069 26.7181 18.9694C26.6185 18.8698 26.5625 18.7346 26.5625 18.5938V8.5H22.8438C22.7029 8.5 22.5677 8.44403 22.4681 8.3444C22.3685 8.24477 22.3125 8.10965 22.3125 7.96875C22.3125 7.82785 22.3685 7.69273 22.4681 7.5931C22.5677 7.49347 22.7029 7.4375 22.8438 7.4375H27.0938C27.2346 7.4375 27.3698 7.49347 27.4694 7.5931C27.569 7.69273 27.625 7.82785 27.625 7.96875V18.5938C27.625 18.7346 27.569 18.8698 27.4694 18.9694C27.3698 19.069 27.2346 19.125 27.0938 19.125Z" fill="white"/>
<path d="M10.625 15.4062H8.5C8.3591 15.4062 8.22398 15.3503 8.12435 15.2507C8.02472 15.151 7.96875 15.0159 7.96875 14.875C7.96875 14.7341 8.02472 14.599 8.12435 14.4993C8.22398 14.3997 8.3591 14.3438 8.5 14.3438H10.625C10.7659 14.3438 10.901 14.3997 11.0007 14.4993C11.1003 14.599 11.1562 14.7341 11.1562 14.875C11.1562 15.0159 11.1003 15.151 11.0007 15.2507C10.901 15.3503 10.7659 15.4062 10.625 15.4062Z" fill="white"/>
<path d="M10.625 17.5312H8.5C8.3591 17.5312 8.22398 17.4753 8.12435 17.3757C8.02472 17.276 7.96875 17.1409 7.96875 17C7.96875 16.8591 8.02472 16.724 8.12435 16.6243C8.22398 16.5247 8.3591 16.4688 8.5 16.4688H10.625C10.7659 16.4688 10.901 16.5247 11.0007 16.6243C11.1003 16.724 11.1562 16.8591 11.1562 17C11.1562 17.1409 11.1003 17.276 11.0007 17.3757C10.901 17.4753 10.7659 17.5312 10.625 17.5312Z" fill="white"/>
<path d="M17 32.9375C13.6197 32.9336 10.379 31.589 7.98874 29.1988C5.5985 26.8085 4.25394 23.5678 4.25 20.1875C4.25 20.0466 4.30597 19.9115 4.4056 19.8118C4.50523 19.7122 4.64035 19.6562 4.78125 19.6562H29.2188C29.3596 19.6562 29.4948 19.7122 29.5944 19.8118C29.694 19.9115 29.75 20.0466 29.75 20.1875C29.7461 23.5678 28.4015 26.8085 26.0113 29.1988C23.621 31.589 20.3803 32.9336 17 32.9375ZM5.32419 20.7188C5.45873 23.725 6.74764 26.5635 8.92255 28.6432C11.0975 30.723 13.9908 31.8837 17 31.8837C20.0092 31.8837 22.9025 30.723 25.0774 28.6432C27.2524 26.5635 28.5413 23.725 28.6758 20.7188H5.32419Z" fill="white"/>
<path d="M12.8562 28.5422C12.7776 28.5422 12.6969 28.5395 12.6097 28.5332C11.0452 28.4221 9.04185 27.3193 8.5531 25.8541C7.9751 24.119 5.59935 21.1908 4.54376 20.6659C4.41766 20.6029 4.32174 20.4924 4.2771 20.3587C4.23247 20.225 4.24278 20.0791 4.30576 19.9529C4.36874 19.8268 4.47923 19.7309 4.61294 19.6863C4.74664 19.6417 4.89259 19.652 5.0187 19.7149C6.42279 20.4151 8.92763 23.6159 9.56248 25.5178C9.89557 26.5181 11.5154 27.3904 12.6857 27.4733C13.0889 27.5031 13.3981 27.4271 13.4704 27.2815C13.6483 26.9256 13.4672 26.2286 13.2913 25.5545C13.0135 24.4872 12.6676 23.159 13.5702 22.2559C14.6269 21.1993 14.8479 20.9065 14.587 20.4497C14.5166 20.3275 14.4976 20.1824 14.5341 20.0462C14.5707 19.91 14.6599 19.7939 14.782 19.7234C14.9042 19.653 15.0493 19.634 15.1855 19.6705C15.3217 19.7071 15.4378 19.7963 15.5082 19.9184C16.1989 21.1238 15.3297 21.994 14.3214 23.0023C13.8815 23.4422 14.0351 24.1902 14.3214 25.2819C14.5467 26.1457 14.7794 27.0393 14.4234 27.7517C14.2694 28.0234 14.0383 28.2435 13.7595 28.3841C13.4806 28.5248 13.1663 28.5798 12.8562 28.5422Z" fill="white"/>
<path d="M22.2354 31.6621C22.0331 31.5977 21.8363 31.5172 21.6468 31.4215C21.3656 31.3006 21.1136 31.1209 20.9077 30.8945C20.7018 30.668 20.5468 30.4001 20.4531 30.1087C20.3921 29.8206 20.3944 29.5226 20.4599 29.2354C20.5254 28.9482 20.6525 28.6786 20.8324 28.4454C21.9672 26.747 21.9672 25.0215 21.9672 22.6309C21.9672 21.7708 21.5252 21.3187 20.9004 20.7715L21.5995 19.9746C22.0276 20.2761 22.3796 20.6731 22.6278 21.1341C22.876 21.5951 23.0136 22.1075 23.0297 22.6309C23.0297 25.1102 23.0297 27.0684 21.7185 29.0345C21.6258 29.1452 21.5569 29.2739 21.5164 29.4126C21.4759 29.5512 21.4646 29.6967 21.4832 29.8399C21.6066 30.1277 21.8385 30.3553 22.1287 30.4732C22.2665 30.5427 22.4097 30.6012 22.5568 30.648L22.2354 31.6621Z" fill="white"/>
</svg>
