<svg width="103" height="127" viewBox="0 0 103 127" fill="none" xmlns="http://www.w3.org/2000/svg">
<path d="M52 3.74947C59.9537 3.75856 67.5791 6.92218 73.2032 12.5463C78.8273 18.1704 81.9909 25.7958 82 33.7495C82 59.8228 54.4225 84.726 53.2478 85.7734C52.9046 86.0803 52.4604 86.25 52 86.25C51.5396 86.25 51.0954 86.0803 50.7522 85.7734C49.5775 84.726 22 59.8228 22 33.7495C22.0091 25.7958 25.1727 18.1704 30.7968 12.5463C36.421 6.92218 44.0463 3.75856 52 3.74947ZM52 81.8018C57.3751 76.6172 78.25 55.1023 78.25 33.7495C78.25 26.7875 75.4844 20.1108 70.5616 15.1879C65.6387 10.2651 58.9619 7.49947 52 7.49947C45.0381 7.49947 38.3613 10.2651 33.4384 15.1879C28.5156 20.1108 25.75 26.7875 25.75 33.7495C25.75 55.1023 46.6249 76.6172 52 81.8018Z" fill="black"/>
<path d="M62.317 14.0113C62.6462 14.011 62.9697 14.0978 63.2545 14.2629C66.6686 16.2449 69.5035 19.0872 71.4767 22.5064C73.4498 25.9256 74.4922 29.8023 74.5 33.75C74.5 34.2473 74.3025 34.7242 73.9508 35.0758C73.5992 35.4275 73.1223 35.625 72.625 35.625C72.1277 35.625 71.6508 35.4275 71.2992 35.0758C70.9475 34.7242 70.75 34.2473 70.75 33.75C70.7434 30.4597 69.8743 27.2286 68.2293 24.379C66.5843 21.5293 64.221 19.1608 61.375 17.5095C61.0176 17.3028 60.7384 16.984 60.5807 16.6024C60.423 16.2209 60.3957 15.7979 60.5029 15.3992C60.6102 15.0005 60.846 14.6484 61.1739 14.3974C61.5017 14.1465 61.9041 14.0108 62.317 14.0113Z" fill="black"/>
<g filter="url(#filter0_f_67_880)">
<ellipse cx="51.5" cy="101" rx="36.5" ry="11" fill="#252525" fill-opacity="0.6"/>
</g>
<defs>
<filter id="filter0_f_67_880" x="0" y="75" width="103" height="52" filterUnits="userSpaceOnUse" color-interpolation-filters="sRGB">
<feFlood flood-opacity="0" result="BackgroundImageFix"/>
<feBlend mode="normal" in="SourceGraphic" in2="BackgroundImageFix" result="shape"/>
<feGaussianBlur stdDeviation="7.5" result="effect1_foregroundBlur_67_880"/>
</filter>
</defs>
</svg>
