<svg width="56" height="56" viewBox="0 0 56 56" fill="none" xmlns="http://www.w3.org/2000/svg">
<path d="M52.5984 48.8797C52.2374 47.5344 51.6577 46.2875 50.9031 45.1828C51.614 44.7672 52.2593 44.2531 52.8171 43.6187C54.2062 42.0109 54.8406 39.9656 54.6109 37.8328C54.4249 36.2687 52.5109 35.6125 51.4171 36.75L49.6015 38.3906C49.0109 38.8828 48.0484 38.9375 47.4249 38.3578C46.8015 37.8109 46.6484 36.9031 47.0531 36.2359L48.4531 34.1688C49.4374 32.9109 48.4749 31.1063 46.9328 31.1719C44.8328 31.2375 42.8421 32.1781 41.464 33.7641C40.0421 35.4047 39.4187 37.5484 39.6921 39.6484L37.3187 39.3969C37.2749 39.3969 37.2421 39.3859 37.1984 39.3859C35.8421 39.3859 34.7374 38.2812 34.7374 36.925V33.8188C37.6578 31.2047 40.4906 28.0328 40.4906 24.5437V18.0797H40.5234H42.4265C43.0609 18.0797 43.564 17.5656 43.564 16.9422C43.564 16.3187 43.0499 15.8047 42.4265 15.8047H41.6499C41.4421 10.3906 38.1499 5.76406 33.4687 3.65313C33.5671 1.67344 32.0031 0 29.9796 0H25.4953C23.439 0 21.9296 1.72813 22.0281 3.65313C17.3468 5.76406 14.0546 10.3906 13.8468 15.8047H13.0593C12.4249 15.8047 11.9218 16.3187 11.9218 16.9422C11.9218 17.5656 12.4359 18.0797 13.0593 18.0797H14.9624H14.9843V24.5437C14.9843 28.0437 17.839 31.2156 20.7593 33.8297V36.925C20.7593 38.2812 19.6546 39.3859 18.2984 39.3859C18.2546 39.3859 18.2218 39.3859 18.1781 39.3969C14.4812 39.7797 14.4046 39.7906 12.7859 39.9656C8.00619 40.7094 4.12338 44.1984 2.88744 48.8687L1.37807 54.5562C1.214 55.1687 1.57494 55.7922 2.18744 55.9562C2.79994 56.1203 3.42338 55.7594 3.58744 55.1469L5.09682 49.4594C6.08119 45.7516 9.12182 42.9625 12.8406 42.2844V46.4625C11.1124 46.9437 9.67963 48.2453 9.05619 49.9844L7.45932 54.4688C7.2515 55.0594 7.55775 55.7156 8.14838 55.9234C8.739 56.1312 9.39525 55.825 9.60307 55.2344L11.1999 50.75C11.6703 49.4266 12.939 48.5297 14.339 48.5297H32.9437L32.5828 48.9453C31.0515 50.7172 31.2374 53.4078 33.0093 54.95C34.7921 56.4922 37.4828 56.2844 39.014 54.5234L43.3999 49.4594C43.7718 49.8094 44.0671 50.2469 44.2421 50.75L45.839 55.2344C46.0468 55.825 46.7031 56.1422 47.2937 55.9234C47.8843 55.7156 48.2015 55.0594 47.9828 54.4688L46.3859 49.9844C46.0687 49.0984 45.5437 48.3438 44.8874 47.7313L46.2656 46.1453C47.0749 46.2437 47.8734 46.1891 48.6609 46.025C49.4265 47.0312 50.0171 48.1906 50.3562 49.4594L51.8656 55.1469C52.0296 55.7484 52.6531 56.1203 53.2656 55.9562C53.8781 55.7922 54.239 55.1687 54.0749 54.5562L52.5984 48.8797ZM22.4874 5.97187L23.8328 12.0203C23.9749 12.6328 24.5874 13.0266 25.1999 12.8844C25.8124 12.7422 26.2062 12.1406 26.064 11.5172L24.3249 3.72969C24.1609 2.975 24.7296 2.275 25.4843 2.275H29.9687C30.7343 2.275 31.314 3.00781 31.1281 3.72969L29.4218 11.5281C29.2796 12.1406 29.6734 12.7531 30.2859 12.8953C30.8984 13.0375 31.5109 12.6438 31.6531 12.0312L32.9984 5.98281C36.6296 7.83125 39.1671 11.5281 39.364 15.8266C26.1406 15.8266 29.3234 15.8266 16.1328 15.8266C16.3187 11.5172 18.8562 7.82031 22.4874 5.97187ZM17.2812 24.5547V18.0906H38.1937V24.5547C38.1937 28.2516 33.2171 32.1672 30.1984 34.6719C29.9249 34.9016 29.5749 35.0328 29.214 35.0328H26.2499C25.8999 35.0328 25.5499 34.9016 25.2656 34.6719C22.3562 32.2547 17.2812 28.2734 17.2812 24.5547ZM23.8109 36.4328C24.4999 37.0016 25.364 37.3188 26.2609 37.3188H29.2249C30.1109 37.3188 30.9859 37.0016 31.6749 36.4328C31.7515 36.3672 31.3906 36.6734 32.4515 35.7875V36.9359C32.4515 38.5984 33.3156 40.0641 34.6062 40.9062C30.0124 43.6516 25.4953 43.6516 20.9015 40.9062C22.2031 40.0531 23.0562 38.5984 23.0562 36.9359V35.7984C23.1328 35.8641 22.7828 35.5688 23.8109 36.4328ZM15.1374 46.2547V42.0219L17.9921 41.7266C21.2296 44.0891 24.489 45.2812 27.7374 45.2812C30.9968 45.2812 34.2562 44.0891 37.4828 41.7266L38.7406 41.8578L34.9343 46.2547H15.1374ZM46.0906 43.8047C45.6859 43.7172 45.2593 43.8594 44.9859 44.1766L37.3078 53.0359C35.6015 55.0047 32.6374 52.4125 34.3328 50.4547L41.9999 41.5953C42.2734 41.2781 42.3499 40.8406 42.2078 40.4578C41.5624 38.6859 41.9343 36.7062 43.1703 35.2734C43.9468 34.3766 44.9531 33.7969 46.0906 33.5672L45.1171 35.0219C44.1109 36.6844 44.4499 38.8172 45.9156 40.0969C47.3593 41.3438 49.5031 41.4312 51.089 40.1297L52.3468 38.9922C52.2812 40.1516 51.8437 41.2344 51.0781 42.1313C49.8421 43.5422 47.9281 44.1984 46.0906 43.8047Z" fill="white"/>
</svg>
